<svg width="100%" height="100%" fill="#fefefe" id="Слой_1" data-name="Слой 1" xmlns="http://www.w3.org/2000/svg" viewBox="0 0 69 69"><defs><style></style></defs><path class="cls-1" d="M15.77,26.14V51H53.24V26.14a7.83,7.83,0,0,1,7.82-7.83V13.25a9.7,9.7,0,0,0-9.7-9.7H17.64a9.7,9.7,0,0,0-9.7,9.7v5.06h0A7.84,7.84,0,0,1,15.77,26.14Z"></path><path class="cls-1" d="M2.61,26.14V58.87A5.33,5.33,0,0,0,7.94,64.2H61.06a5.33,5.33,0,0,0,5.33-5.33V26.14a5.33,5.33,0,0,0-5.33-5.33h0v25a9.69,9.69,0,0,1-9.7,9.69H17.64a9.69,9.69,0,0,1-9.7-9.69V20.81A5.33,5.33,0,0,0,2.61,26.14Z"></path><path class="cls-1" d="M17.64,55.45H51.36a9.69,9.69,0,0,0,9.7-9.69V20.81a5.33,5.33,0,0,0-5.32,5.33v27.4H13.27V26.14a5.33,5.33,0,0,0-5.33-5.33h0v25A9.69,9.69,0,0,0,17.64,55.45Z"></path></svg>
