<?xml version="1.0" encoding="iso-8859-1"?>
<!-- Generator: Adobe Illustrator 16.0.0, SVG Export Plug-In . SVG Version: 6.00 Build 0)  -->
<!DOCTYPE svg PUBLIC "-//W3C//DTD SVG 1.1//EN" "http://www.w3.org/Graphics/SVG/1.1/DTD/svg11.dtd">
<svg version="1.1" id="Capa_1" xmlns="http://www.w3.org/2000/svg" xmlns:xlink="http://www.w3.org/1999/xlink" x="0px" y="0px"
	 width="100%" height="100%" viewBox="0 0 652.801 652.801" style="enable-background:new 0 0 652.801 652.801;"
	 xml:space="preserve" fill="#fff">
<g>
	<g id="_x35__16_">
		<g>
			<path d="M550.801,40.8H469.2V20.4c0-11.261-9.139-20.4-20.399-20.4s-20.4,9.139-20.4,20.4v20.4h-204V20.4C224.4,9.139,215.261,0,204,0
				s-20.4,9.139-20.4,20.4v20.4H102c-45.063,0-81.6,36.537-81.6,81.6v448.799c0,45.064,36.537,81.602,81.6,81.602h448.8
				c45.063,0,81.6-36.537,81.6-81.602V122.4C632.4,77.336,595.864,40.8,550.801,40.8z M591.601,571.199
				c0,22.543-18.258,40.801-40.8,40.801H102c-22.542,0-40.8-18.279-40.8-40.801V204h530.4V571.199z M591.601,163.2H61.2v-40.8
				c0-22.542,18.258-40.8,40.8-40.8h81.6V102c0,11.261,9.139,20.4,20.4,20.4s20.4-9.139,20.4-20.4V81.6h204V102
				c0,11.261,9.14,20.4,20.4,20.4S469.2,113.261,469.2,102V81.6h81.601c22.542,0,40.8,18.258,40.8,40.8V163.2z"/>
		</g>
	</g>
</g>
<g>
</g>
<g>
</g>
<g>
</g>
<g>
</g>
<g>
</g>
<g>
</g>
<g>
</g>
<g>
</g>
<g>
</g>
<g>
</g>
<g>
</g>
<g>
</g>
<g>
</g>
<g>
</g>
<g>
</g>
</svg>
