<svg width="100%" height="100%" fill="#fefefe" id="Слой_1" data-name="Слой 1" xmlns="http://www.w3.org/2000/svg" viewBox="0 0 160 84">
<defs>
<style></style>
</defs>
<path class="cls-1" d="M33.26,34.26V59.17h45.3c0-.24,0-.48,0-.73V21.38a9.7,9.7,0,0,0-9.7-9.7H35.17a9.69,9.69,0,0,0-9.69,9.7v5.06A7.83,7.83,0,0,1,33.26,34.26Z">
</path><path class="cls-1" d="M126.74,34.26a7.83,7.83,0,0,1,7.83-7.82h0V21.38a9.7,9.7,0,0,0-9.7-9.7H91.17a9.69,9.69,0,0,0-9.69,9.7V58.44c0,.25,0,.49,0,.73h45.23Z"></path>
<path class="cls-1" d="M68.9,68.14H35.17a9.69,9.69,0,0,1-9.69-9.7V28.94h-.05a5.32,5.32,0,0,0-5.32,5.32V67a5.29,5.29,0,0,0,3.25,4.91,5.21,5.21,0,0,0,2.07.42H134.57A5.32,5.32,0,0,0,139.89,67V34.26a5.33,5.33,0,0,0-5.29-5.32v29.5a9.7,9.7,0,0,1-9.7,9.7H91.17A9.68,9.68,0,0,1,82,61.67H78A9.69,9.69,0,0,1,68.9,68.14Z"></path>
<path class="cls-1" d="M35.17,68.14H68.9A9.69,9.69,0,0,0,78,61.67H30.76V34.26a5.34,5.34,0,0,0-5.28-5.32v29.5A9.69,9.69,0,0,0,35.17,68.14Z"></path>
<path class="cls-1" d="M91.17,68.14H124.9a9.7,9.7,0,0,0,9.7-9.7V28.94h0a5.33,5.33,0,0,0-5.33,5.32V61.67H82A9.68,9.68,0,0,0,91.17,68.14Z"></path>
</svg>
